<svg width="20" height="20" viewBox="0 0 20 20" fill="none" xmlns="http://www.w3.org/2000/svg">
<path d="M3.59375 0.514648L9.46191 1.94629C9.60776 1.98188 9.73024 2.08133 9.79492 2.2168L14.0283 11.084C14.2865 10.5994 14.7904 10.2627 15.3828 10.2627C16.242 10.263 16.9248 10.9715 16.9248 11.8252C16.9246 12.6758 16.2452 13.3823 15.3887 13.3857L15.0352 13.8398C15.6098 14.5261 16.1263 15.4211 16.3984 15.9697L17.0596 16.0498C17.3226 16.0814 17.5154 16.3128 17.499 16.5771L17.3457 19.0312C17.3286 19.3045 17.0947 19.5128 16.8213 19.499L14.2881 19.3721C14.0221 19.3587 13.8125 19.1384 13.8125 18.8721V18.0283C13.4373 17.6977 12.7524 17.0388 12.25 16.1963L11.7705 16.4551C11.5543 17.0454 10.9945 17.4756 10.3252 17.4756C9.46577 17.4755 8.78338 16.7667 8.7832 15.9141C8.7832 15.2228 9.23156 14.6252 9.85938 14.4238L2.65137 7.41309C2.54487 7.30944 2.49032 7.16379 2.50195 7.01562L2.97656 0.960938L2.99707 0.854492C3.02855 0.751022 3.09343 0.65928 3.18262 0.594727C3.30129 0.508977 3.45149 0.479973 3.59375 0.514648Z" fill="black" stroke="white" stroke-linejoin="round"/>
</svg>
