<svg width="20" height="20" viewBox="0 0 20 20" fill="none" xmlns="http://www.w3.org/2000/svg">
<path d="M17.0771 2.5C17.6671 2.5 18.146 2.6817 18.5146 2.99902C18.874 3.30839 19.0943 3.71712 19.2324 4.12109C19.5038 4.91528 19.5 5.8254 19.5 6.30762C19.5 7.72793 19.282 8.81869 18.7568 9.66504L18.7559 9.66602C18.2977 10.4017 17.6341 10.8897 16.8086 11.1445C17.0742 11.4602 17.2827 11.8018 17.4238 12.1719V12.1729C17.7594 13.0553 17.6792 13.9943 17.2461 14.9336L17.2451 14.9346C16.6885 16.1348 15.3197 17.4998 13.5615 17.5C12.5112 17.5 11.1992 17.0019 10 15.2295C8.80105 17.002 7.48796 17.5 6.43848 17.5C4.68026 17.4998 3.31149 16.1346 2.75488 14.9326H2.75391C2.32064 13.9933 2.24042 13.0538 2.57617 12.1719C2.71721 11.8009 2.92577 11.4583 3.19238 11.1416C2.7541 11.0048 2.37775 10.8081 2.05859 10.5605C1.521 10.1434 1.17097 9.60878 0.943359 9.06641C0.495352 7.99865 0.499999 6.83934 0.5 6.30762C0.5 5.82544 0.495373 4.9152 0.766602 4.12109C0.904585 3.71721 1.12525 3.30839 1.48438 2.99902C1.85293 2.68161 2.33202 2.5 2.92188 2.5C3.36143 2.50001 3.8352 2.59999 4.35742 2.7832L4.56348 2.85938C5.60106 3.27135 6.74052 4.07935 7.75586 5.01953C8.61061 5.81102 9.40466 6.72398 10 7.62598C10.5953 6.72376 11.3895 5.81096 12.2441 5.01953C13.3269 4.01689 14.551 3.16522 15.6416 2.7832L15.6426 2.78223C16.164 2.60043 16.6363 2.50004 17.0771 2.5Z" fill="#0047E1" stroke="white"/>
</svg>
