<svg width="20" height="20" viewBox="0 0 20 20" fill="none" xmlns="http://www.w3.org/2000/svg">
<path d="M9.99414 0.5C11.6656 0.500172 13.0194 1.85583 13.0195 3.52637C13.0195 4.65875 12.3971 5.64409 11.4766 6.16309H15.8887V6.16406C16.7097 6.15469 17.4008 6.77219 17.4863 7.58789H17.4873C17.4876 7.59013 17.487 7.59248 17.4873 7.59473C17.4876 7.59793 17.489 7.60129 17.4893 7.60449H17.4883C17.5842 8.42063 17.0415 9.17516 16.2354 9.34375L16.2363 9.3457L13.4551 9.96289V17.8955C13.46 18.705 12.8571 19.3878 12.0537 19.4834L12.0547 19.4844C12.0512 19.4848 12.0475 19.4839 12.0439 19.4844L12.043 19.4854L12.042 19.4844C11.9785 19.4926 11.9093 19.499 11.8359 19.499C11.1034 19.5011 10.466 19.0016 10.29 18.292L10.2891 18.293L9.99219 17.1475L9.69922 18.2744C9.52558 18.9866 8.88669 19.4901 8.15234 19.4883L8.15039 19.4893V19.4883C8.08136 19.4882 8.01214 19.4835 7.94336 19.4746H7.94043C7.93795 19.4743 7.9351 19.4749 7.93262 19.4746V19.4736C7.13045 19.3768 6.52734 18.6946 6.53223 17.8857V9.96289L3.76172 9.3457C2.96049 9.16786 2.42087 8.41499 2.50977 7.59863L2.5332 7.44727C2.68614 6.70767 3.33925 6.1633 4.10938 6.16309H8.51172C7.59096 5.64417 6.96777 4.65898 6.96777 3.52637C6.9679 1.85577 8.32255 0.5 9.99414 0.5Z" fill="black" stroke="white"/>
</svg>
