<svg width="20" height="20" viewBox="0 0 20 20" fill="none" xmlns="http://www.w3.org/2000/svg">
<path d="M10 1.5C10.2399 1.50018 10.4463 1.67061 10.4912 1.90625C11.2054 5.66165 13.0209 8.47985 15.2188 9.5498C15.3906 9.63348 15.4999 9.80786 15.5 9.99902C15.5 10.1903 15.3907 10.3655 15.2188 10.4492C13.0209 11.5194 11.2053 14.3384 10.4912 18.0938C10.4463 18.3294 10.2399 18.4998 10 18.5C9.76001 18.5 9.55381 18.3294 9.50879 18.0938C8.79457 14.3395 6.97824 11.5192 4.78125 10.4492C4.60928 10.3655 4.50001 10.1903 4.5 9.99902C4.50014 9.8079 4.6094 9.6335 4.78125 9.5498C6.97838 8.47966 8.7947 5.6604 9.50879 1.90625L9.53223 1.82129C9.60503 1.63057 9.78988 1.5 10 1.5Z" fill="#6500B2" stroke="white" stroke-linejoin="round"/>
</svg>
